<?xml version="1.0" encoding="utf-8"?>
<!-- Generator: Adobe Illustrator 27.0.0, SVG Export Plug-In . SVG Version: 6.00 Build 0)  -->
<svg version="1.1" id="Layer_1" xmlns="http://www.w3.org/2000/svg" xmlns:xlink="http://www.w3.org/1999/xlink" x="0px" y="0px"
	 viewBox="0 0 512 512" style="enable-background:new 0 0 512 512;" xml:space="preserve">
<style type="text/css">
	.st0{fill:none;stroke:#000000;stroke-width:48;stroke-miterlimit:10;}
</style>
<path d="M177.5,256c0,30.9-25.1,56-56,56s-56-25.1-56-56s25.1-56,56-56S177.5,225.1,177.5,256z M312,256c0,30.9-25.1,56-56,56
	s-56-25.1-56-56s25.1-56,56-56S312,225.1,312,256z M390.5,312c-30.9,0-56-25.1-56-56s25.1-56,56-56s56,25.1,56,56
	S421.4,312,390.5,312z"/>
<circle class="st0" cx="256" cy="256" r="231"/>
</svg>
