<?xml version="1.0" encoding="utf-8"?>
<!-- Generator: Adobe Illustrator 27.0.0, SVG Export Plug-In . SVG Version: 6.00 Build 0)  -->
<svg version="1.1" id="Layer_1" xmlns="http://www.w3.org/2000/svg" xmlns:xlink="http://www.w3.org/1999/xlink" x="0px" y="0px"
	 viewBox="0 0 576 512" style="enable-background:new 0 0 576 512;" xml:space="preserve">
<path d="M324.9,407l152-70l53.2,24.5c8.5,3.9,13.9,12.4,13.9,21.8c0,9.4-5.4,17.9-13.9,21.8L311.5,505.8c-14.9,6.9-32.1,6.9-47,0
	L45.9,405.1c-8.5-4-13.9-12.5-13.9-21.8c0-9.3,5.4-17.9,13.9-21.8L99.1,337l152,70C274.5,417.8,301.5,417.8,324.9,407L324.9,407z"/>
<path d="M244.8,278.6c0,6.1-5.3,11-11.5,10.5c-5.5-0.5-9.5-5.3-9.5-10.8V142.4c0-5.5,4-10.3,9.5-10.8c6.2-0.6,11.5,4.3,11.5,10.5
	V278.6z M297.8,278.6c0,6.1-5.3,11-11.5,10.5c-5.5-0.5-9.5-5.3-9.5-10.8V142.4c0-5.5,4-10.3,9.5-10.8c6.2-0.6,11.5,4.3,11.5,10.5
	V278.6z M351.8,278.6c0,6.1-5.3,11-11.5,10.5c-5.5-0.5-9.5-5.3-9.5-10.8V142.4c0-5.5,4-10.3,9.5-10.8c6.2-0.6,11.5,4.3,11.5,10.5
	V278.6z M349.7,30.5L374,67h46.5c9.8,0,17.5,8.8,15.7,18.9C434.9,93.6,428,99,420.2,99h-4.5v201.9c0,29.3-23.8,53.1-53.1,53.1H213.9
	c-29.3,0-53.1-23.8-53.1-53.1V99h-5.3c-9.7,0-17.5-8.7-15.8-18.8C141,72.5,148,67,155.8,67l45.8,0l24.3-36.5
	c6.9-10.3,18.5-16.5,30.9-16.5h62.1C331.2,14,342.8,20.2,349.7,30.5L349.7,30.5z M240.2,67h95.1l-12.5-18.7c-1-1.5-2.6-2.3-4.3-2.3
	H257c-1.7,0-3.9,0.9-4.3,2.3L240.2,67z M192.8,300.8c0,11.7,9.5,21.2,21.2,21.2h148.5c11.7,0,21.2-9.5,21.2-21.2V99H192.8V300.8z"/>
</svg>
