<?xml version="1.0" encoding="utf-8"?>
<!-- Generator: Adobe Illustrator 27.0.0, SVG Export Plug-In . SVG Version: 6.00 Build 0)  -->
<svg version="1.1" id="Layer_1" xmlns="http://www.w3.org/2000/svg" xmlns:xlink="http://www.w3.org/1999/xlink" x="0px" y="0px"
	 viewBox="0 0 576 512" style="enable-background:new 0 0 576 512;" xml:space="preserve">
<path d="M324.9,407l152-70l53.2,24.5c8.5,3.9,13.9,12.4,13.9,21.8c0,9.4-5.4,17.9-13.9,21.8L311.5,505.8c-14.9,6.9-32.1,6.9-47,0
	L45.9,405.1c-8.5-4-13.9-12.5-13.9-21.8c0-9.3,5.4-17.9,13.9-21.8L99.1,337l152,70C274.5,417.8,301.5,417.8,324.9,407L324.9,407z"/>
<path d="M251.6,317.6v-97.1h-97.1c-20.2,0-36.4-16.2-36.4-36.4s16.2-36.4,36.4-36.4h97.1V50.4c0-20.2,16.2-36.4,36.4-36.4
	s36.4,16.2,36.4,36.4v97.1h97.1c20.2,0,36.4,16.2,36.4,36.4s-16.2,36.4-36.4,36.4h-97.1v97.1c0,20.2-16.2,36.4-36.4,36.4
	S251.6,337.8,251.6,317.6z"/>
</svg>
