<?xml version="1.0" encoding="utf-8"?>
<!-- Generator: Adobe Illustrator 27.0.0, SVG Export Plug-In . SVG Version: 6.00 Build 0)  -->
<svg version="1.1" id="Layer_1" xmlns="http://www.w3.org/2000/svg" xmlns:xlink="http://www.w3.org/1999/xlink" x="0px" y="0px"
	 viewBox="0 0 512 512" style="enable-background:new 0 0 512 512;" xml:space="preserve">
<path d="M341.4,40.2l160,144c6.7,6.1,10.6,14.7,10.6,23.8s-3.9,17.7-10.6,23.9l-160,144c-9.4,8.4-22.8,10.5-34.4,5.4
	s-19-16.6-19-29.2v-64h-96c-53,0-96,43-96,96c0,30.3,12.8,47.9,22.2,56.7c5.5,5.1,9.8,12,9.8,19.5c0,10.8-8.8,19.7-19.7,19.7
	c-2.8,0-5.6-0.5-8.1-1.9C81.5,467.9,0,417.3,0,304c0-97.2,78.8-176,176-176h112V64c0-12.6,7.5-24.1,19-29.2
	C318.5,29.6,332,31.7,341.4,40.2z"/>
</svg>
